<?xml version="1.0" encoding="utf-8"?>
<!-- Generator: Adobe Illustrator 26.4.1, SVG Export Plug-In . SVG Version: 6.00 Build 0)  -->
<svg version="1.1" id="Layer_1" xmlns="http://www.w3.org/2000/svg" xmlns:xlink="http://www.w3.org/1999/xlink" x="0px" y="0px"
	 viewBox="0 0 3777.2 2858.9" style="enable-background:new 0 0 3777.2 2858.9;" xml:space="preserve">
<style type="text/css">
	.st0{fill:url(#SVGID_1_);}
</style>
<linearGradient id="SVGID_1_" gradientUnits="userSpaceOnUse" x1="1888.5789" y1="2778.0815" x2="1888.5789" y2="94.1511">
	<stop  offset="4.450220e-02" style="stop-color:#FFFFFF"/>
	<stop  offset="0.3243" style="stop-color:#C1D4B2"/>
	<stop  offset="0.6109" style="stop-color:#C3D6B5"/>
	<stop  offset="0.736" style="stop-color:#DEE9D7"/>
	<stop  offset="0.8677" style="stop-color:#F6F9F4"/>
	<stop  offset="0.9428" style="stop-color:#FFFFFF"/>
</linearGradient>
<path class="st0" d="M3775.3,2858.9c-102.1-26.3-199.6-66.3-290.7-119c-47.7,6.8-96,10.2-144.5,10.2c-137.3,0-270.6-26.9-396-79.9
	c-54.4-23-106.2-50.4-155.4-82.2c-56.9,11.5-115.1,17.3-174.1,17.3c-117.8,0-232.1-23.1-339.6-68.6c-51.3-21.7-99.9-48-145.7-78.7
	c-80.4-5.5-158.5-24-232.7-55.4c-54.9-23.2-106.3-52.8-153.6-88.4c-78-0.2-153.6-15.6-224.9-45.7c-58.9-24.9-112.7-59-160.3-101.5
	c-16.4,1.8-32.9,2.8-49.6,2.8c-59,0-116.2-11.6-170.1-34.3c-52-22-98.8-53.5-138.9-93.7c-10.7-10.7-20.7-21.8-30.2-33.4
	c-30.6,10.7-63,16.2-96.3,16.2c-78,0-151.2-30.4-206.4-85.5c-49.4-49.4-78.9-113.3-84.5-182.1c-11.6,69.4-72.1,122.4-144.7,122.4
	c-80.4,0-145.9-65-146.7-145.2H6.1c0,2.6,0,5.3,0,7.9h-3c0-2.6,0-5.2,0-7.9l-3.1,0v-1.5c0,0,0,0,0,0c0-2.8,0-5.7,0-8.5
	c0-0.1,0-0.3,0-0.4c0-0.1,0-0.2,0-0.3c0-0.4,0-0.7,0-1.1c0-0.4,0-0.8,0-1.2c0-0.6,0-1.1,0-1.6c0,0,0-0.1,0-0.1c0-0.2,0-0.4,0-0.5
	c0-0.2,0-0.4,0-0.6c0-1.2,0-2.3,0-3.4c0,0,0,0,0,0l0-0.9c1.1-90.3,10.4-179.3,27.8-266.5c4.3-25.2,9.1-50.2,14.5-75
	c23.9-110.6,58.8-219.3,103.9-323.1c44.2-102,98.6-200.2,161.7-292.1c62.5-91,134.1-176.6,212.8-254.4
	c78.7-77.8,165.1-148.3,256.9-209.7c92.7-62,191.7-115.3,294.3-158.3c104.5-43.8,213.7-77.5,324.8-100
	C1510.6,11.7,1627.9,0,1745.1,0c118.2,0,236.3,11.9,351.1,35.4c111.9,22.9,221.9,57,327,101.5c103.2,43.7,202.8,97.7,295.9,160.6
	c92.2,62.3,179,133.9,257.8,212.7c78.8,78.8,150.4,165.6,212.7,257.8c36.2,53.6,69.5,109.4,99.6,166.8
	c140.2-111.1,307.8-184,486.2-209.5l0.4,3c-182.2,26.1-348,101-484.7,210.2c21.4,41.1,41.2,83,59.2,125.6c1.1,2.5,2.1,5.1,3.2,7.6
	c78.4,36,149.2,85.3,210.7,146.8c66.8,66.8,119.2,144.5,155.8,231.1c37.8,89.3,57,184.2,57.1,281.9c0,0.4,0,0.8,0,1.2h-1.5v1.5
	h-288.5c0.4,297.1,103.2,587.7,289.6,818.4l-2.3,1.9c-92.1-113.9-163.8-241.2-213.2-378.4c-44.8-124.3-70.2-254.1-75.9-386.7
	c-6.2,97.8-28.6,192.7-66.8,283c-43.9,103.9-106.9,197.2-187,277.4c-29.1,29.1-60,56-92.4,80.4c92.7,123.4,209.9,228.2,345.7,306.8
	c100.5-14.3,197.6-43.6,290.2-87.6l1.3,2.7c-66.8,31.7-137.1,56.1-209.1,72.6c-25.8,5.9-52,10.8-78.3,14.6
	c88.4,50.7,184.7,90.3,287.2,116.7L3775.3,2858.9z M2793.7,2586.9c157.8,101.3,345.4,160.1,546.5,160.1c47.4,0,94.3-3.2,140.4-9.5
	c-17.9-10.5-35.6-21.5-53-32.9c-105.3-69.4-198.2-154.8-276.2-254.1c-4.9-6.2-9.7-12.4-14.4-18.7c-56.3,42.2-117.4,77.3-182.7,104.9
	C2902.2,2558.7,2848.5,2575.5,2793.7,2586.9z M2136.1,2458.4c137.4,90.9,301.9,143.8,478.5,143.8c58.3,0,115.3-5.8,170.4-16.8
	c-58.9-38.4-113.8-83-164.3-133.4c-28.2-28.2-54.6-57.9-79.1-88.8c-25.5,14.6-51.9,27.7-79.2,39.3c-89.6,37.9-184.8,57.1-283,57.1
	C2165,2459.7,2150.5,2459.3,2136.1,2458.4z M2544.7,2361.5c68.9,87,151.8,162.5,245.2,223c127.3-26.2,244.5-80.2,345-155.5
	c-70.9-94.6-126.5-198.8-165.7-310c-37.8-107.5-59.5-219.6-64.6-333.9c-5.6,79.6-24.2,157-55.3,230.6
	c-36.6,86.6-89,164.3-155.8,231.1C2648.7,2291.6,2598.9,2330,2544.7,2361.5z M2131.1,2455.1c16,1.1,32.1,1.6,48.4,1.6
	c131,0,253.9-35,360.1-96c-55.7-70.8-101.5-148.4-136.8-231.9c-46.9-110.9-73.3-227.8-78.9-348.3c-5,61.7-19.6,121.6-43.8,178.6
	c-29.3,69.2-71.2,131.4-124.6,184.8c-53.4,53.4-115.6,95.3-184.8,124.6c-10.2,4.3-20.5,8.3-30.9,12
	C1994.5,2347.7,2059,2406.7,2131.1,2455.1z M1748.5,2314.1c106.6,79.2,235.7,129.9,375.7,140.5c-45.1-30.7-87.4-65.8-126.6-104.9
	c-21.7-21.7-42.2-44.4-61.3-68C1876.2,2302.8,1813.2,2313.7,1748.5,2314.1z M2907.5,1781.3c9.9,239.3,92.9,463,229.6,646
	c197.8-149.1,330.2-380.7,345.6-643.1c-10.3,58.3-38.2,112-81,154.8c-55.1,55.1-128.4,85.5-206.4,85.5c-78,0-151.2-30.4-206.4-85.5
	C2945.5,1895.6,2917.4,1840.8,2907.5,1781.3z M2325.8,1738.8c1.4,233.7,82.2,449,216.8,620.1c206.7-120.3,348.7-340,360.1-593.2
	c-15,65-73.4,113.7-142.9,113.7c-80.4,0-145.9-65-146.7-145.2h-287.3C2325.9,1735.7,2325.8,1737.3,2325.8,1738.8z M1552.8,2094.9
	c48.9,84.3,114.3,157.9,191.8,216.2c66.4,0,130.3-11.3,189.7-32c-50.6-62.8-92-132.1-123.6-206.8c-40-94.7-62.7-194.5-67.6-297.4
	c-4.2,44.1-15,86.9-32.3,127.8c-22,52-53.5,98.8-93.7,138.9C1597.2,2061.6,1575.7,2079.3,1552.8,2094.9z M1362.1,2166.4
	c100.7,88.9,232.6,143.3,376.9,144.7c-25.8-19.7-50.3-41.1-73.5-64.3c-45.2-45.2-83.8-95.4-115.4-150c-22.6,15.1-46.6,28-71.8,38.6
	C1440.9,2151.1,1402,2161.5,1362.1,2166.4z M1746.6,1784.2c10.9,186.3,80.8,357,191.1,493.7c206.2-73.3,358.9-260.6,382-485.7
	c-11.4,55.2-38.6,106-79.4,146.8c-55.1,55.1-128.4,85.5-206.4,85.5c-78,0-151.2-30.4-206.4-85.5
	C1784.8,1896.3,1756.9,1842.5,1746.6,1784.2z M972.1,2007.2c79.7,97.3,200.7,159.5,335.9,159.5c15.7,0,31.3-0.8,46.6-2.5
	c-7.3-6.6-14.4-13.4-21.4-20.4c-53.4-53.4-95.3-115.6-124.6-184.8c-27.2-64.3-42.4-132.2-45.2-202.2
	c-5.6,68.9-35.1,132.8-84.5,182.2C1048.2,1969.8,1011.8,1992.8,972.1,2007.2z M1165.9,1734.2c0.4,170.5,75,323.9,193.1,429.5
	c69.4-8.2,133.9-32.8,189.4-69.8c-14.4-25.2-27.4-51.3-38.8-78.3c-35.7-84.5-54.9-174-56.9-266.2c-0.6-5-0.9-10.1-0.9-15.3H1165.9z
	 M1456.4,1769.6c5.9,116.9,39.7,226.6,94.7,322.5c105.8-71.8,178.3-188.9,189.4-323.3c-16.1,63.5-73.8,110.6-142.2,110.6
	C1530.3,1879.4,1472.8,1832.7,1456.4,1769.6z M2906.5,1734.2c0.4,76.6,30.4,148.5,84.6,202.7c54.6,54.6,127.1,84.6,204.2,84.6
	c145.2,0,265.7-107.7,285.9-247.4c-17.9,60.8-74.2,105.2-140.7,105.2c-80.4,0-145.9-65-146.7-145.2H2906.5z M1745.1,1734.2
	c0.8,158.6,130.1,287.3,288.8,287.3c145.2,0,265.7-107.7,285.9-247.4c-17.9,60.7-74.2,105.2-140.7,105.2
	c-80.4,0-145.9-65-146.7-145.2H1745.1z M583.7,1734.2c0.8,158.6,130.1,287.3,288.8,287.3c33,0,64.7-5.6,94.3-15.8
	c-25.1-31.3-45.7-65.8-61.4-103c-22.6-53.4-34.1-110.1-34.3-168.6H583.7z M875.5,1768.8c7.3,88.9,41.6,170.2,94.5,235.9
	c98.9-35.6,173-123.7,188.4-230.5c-17.9,60.7-74.2,105.2-140.7,105.2C949.3,1879.4,891.6,1832.2,875.5,1768.8z M3196.9,1734.2
	c0.8,78.5,64.9,142.2,143.7,142.2c78.5,0,142.5-63.3,143.7-141.6c0-0.2,0-0.4,0-0.6H3196.9z M2616.2,1734.2
	c0.8,78.5,64.9,142.2,143.7,142.2c77.9,0,141.6-62.4,143.6-139.8c0-0.8,0-1.6-0.1-2.4H2616.2z M2035.5,1734.2
	c0.8,78.5,64.9,142.2,143.7,142.2c78.7,0,142.9-63.6,143.7-142.2H2035.5z M1455.7,1749.3c8.3,71.4,69.1,127,142.7,127
	c78.6,0,142.7-63.5,143.7-141.9c0-0.1,0-0.2,0-0.2h-286.6C1455.5,1739.2,1455.6,1744.3,1455.7,1749.3z M874.1,1734.2
	c0.8,78.5,64.9,142.2,143.7,142.2s142.9-63.6,143.7-142.2H874.1z M293.4,1734.2c0.8,78.5,64.9,142.2,143.7,142.2
	s142.9-63.6,143.7-142.2H293.4z M3487.2,1731.2h287c-0.7-206.9-146.8-380.1-341.3-422.6c7,27.3,13.3,54.8,19,82.4
	C3474.6,1502.2,3486.5,1616.6,3487.2,1731.2z M3196.8,1731.2h287.3c-0.9-146-19.9-287.9-54.8-423.3c-28.8-6-58.6-9.2-89.2-9.2
	c-67.4,0-132.5,15.3-191.2,44.2c5.7,22.6,10.8,45.3,15.5,68.1C3185.8,1515.6,3196.7,1623.4,3196.8,1731.2z M2906.5,1731.2h287.3
	c-0.8-78.5-64.9-142.2-143.7-142.2C2971.5,1589,2907.3,1652.7,2906.5,1731.2z M2616.1,1731.2h286.6c0-4.1-0.1-8.2-0.2-12.3
	c-11.9-148.5-136.5-265.6-287.9-265.6c-9.5,0-18.8,0.5-28,1.4C2606.1,1544.8,2616,1637.2,2616.1,1731.2z M2326.2,1731.2h287
	c-0.8-78.5-64.9-142.2-143.7-142.2c-71.7,0-131.3,52.8-142,121.5c-0.6,5.3-1,10.7-1.3,16.1
	C2326.2,1728.1,2326.2,1729.7,2326.2,1731.2z M2035.4,1731.2h287.4c-0.3-202.5-52.7-393.1-144.5-558.8
	c-88.1,22.8-169.7,66.4-238.9,128.1c5.6,11.9,10.9,23.9,16.1,36.1C2008.3,1461.6,2035.2,1594.3,2035.4,1731.2
	C2035.4,1731.2,2035.4,1731.2,2035.4,1731.2z M1745.9,1731.2h286.6v0c-0.8-78.5-65-142.1-143.7-142.1
	c-73.5,0-134.2,55.4-142.7,126.7C1746,1720.8,1745.9,1726,1745.9,1731.2z M1454.7,1731.2h287.3c-0.8-158.6-130.1-287.3-288.8-287.3
	c-19.1,0-37.7,1.9-55.8,5.4c0,0.1,0.1,0.2,0.1,0.3C1435.3,1538.7,1454.5,1633.5,1454.7,1731.2
	C1454.7,1731.1,1454.7,1731.1,1454.7,1731.2z M1164.4,1731.2h287.3c0,0,0-0.1,0-0.1c-0.9-78.5-65-142.1-143.7-142.1
	C1229.4,1589,1165.2,1652.7,1164.4,1731.2z M874,1731.2h287.3c-0.8-318.7-260.3-577.7-579.2-577.7c-281.4,0-519.5,205.4-569.5,474
	c19.3-78.3,60-149.9,119-207.5c82.1-80.2,190.5-124.3,305.3-124.3c59,0,116.2,11.6,170.1,34.3c52,22,98.8,53.5,138.9,93.7
	c40.1,40.1,71.6,86.9,93.7,138.9c22.6,53.3,34.1,109.9,34.3,168.3C874,1731,874,1731.1,874,1731.2z M583.7,1731.2H871
	c0-0.1,0-0.2,0-0.3c-1-78.4-65-141.9-143.7-141.9C648.7,1589,584.5,1652.7,583.7,1731.2z M293.3,1731.2h287.3
	c-0.8-158.6-130.1-287.3-288.8-287.3C149,1443.8,30,1548.1,7,1684.5c0,1.3-0.1,2.4-0.1,3.7C25.8,1629,81.3,1586,146.7,1586
	C227.1,1586,292.5,1651,293.3,1731.2z M6.1,1731.2h284.2c-0.8-78.5-64.9-142.2-143.7-142.2c-68.3,0-125.6,47.9-140.1,111.9
	c-0.1,6.2-0.3,12.5-0.3,18.7l0,1.1c0,1.6,0,3.1,0,4.7c0,0.1,0,0.2,0,0.3c0,0,0,0,0,0l0,0.1l0,0.2c0,1,0,2,0,3.1l0,0.1l0,0.1
	c0,0.3,0,0.6,0,0.9l0,0.2l0,0.2C6.1,1730.8,6.1,1731,6.1,1731.2z M3,1731.2L3,1731.2c0.1-1,0.1-2,0.1-3C3,1729.2,3,1730.2,3,1731.2z
	 M291.8,1440.8c78,0,151.2,30.4,206.4,85.5c49.4,49.4,78.9,113.3,84.5,182.1c11.6-69.4,72.1-122.4,144.7-122.4
	c68.4,0,126.1,47.1,142.2,110.6c-18.4-222.5-205.4-397.9-432.5-397.9c-216.8,0-394.7,155.1-428.3,362.7
	c12.7-50.7,38.9-97.1,76.8-135C140.6,1471.2,213.9,1440.8,291.8,1440.8z M3050.2,1586c70.2,0,129.1,49.6,143.4,115.7
	c-2.4-123-18.7-242.7-47.6-357.4c-41.2,20.6-79.2,48-112.7,81.5c-74,74-118,170-125.8,273.3C2922.6,1634.3,2980.9,1586,3050.2,1586z
	 M2469.5,1586c70.1,0,128.9,49.5,143.3,115.3c-2-84.3-12-166.8-29.4-246.5c-124.1,13.4-224.8,105.7-251,225.6
	C2353.5,1625.3,2407,1586,2469.5,1586z M1888.8,1586c69.9,0,128.6,49.2,143.2,114.7c-4.4-141.8-38.1-276.4-95.1-398
	c-7.3,6.6-14.5,13.4-21.5,20.5c-100.4,100.4-159.3,231.1-168.2,371.5C1763.8,1632.2,1821,1586,1888.8,1586z M1308.1,1586
	c69.5,0,127.9,48.6,142.9,113.6c-4-88.2-23.8-172.4-56.7-249.8c-117.8,24.5-209.6,121.1-226.9,241.4
	C1185.3,1630.5,1241.6,1586,1308.1,1586z M582.2,1150.5c78.6,0,154.8,15.4,226.6,45.8c69.3,29.3,131.6,71.3,185.1,124.8
	c53.5,53.5,95.4,115.7,124.8,185.1c25.9,61.2,40.9,125.7,44.8,192.1c7.6-64.9,36.6-125,83.5-171.9c40.6-40.6,91.2-67.8,146.2-79.3
	c-111.1-257.8-367.6-438.7-665.7-438.7c-351.5,0-648,255-711.7,589.7c8-33.9,19.1-67,33.3-99.2c29.9-68.1,72.1-129.1,125.3-181.4
	c53.3-52.4,115.1-93.5,183.8-122.1C429.1,1165.5,504.5,1150.5,582.2,1150.5z M872.5,860.1c117.8,0,232.1,23.1,339.6,68.6
	c103.9,43.9,197.2,106.9,277.3,187c80.1,80.1,143,173.4,187,277.3c40.3,95.3,63,195.9,67.7,299.5c4.3-64.5,19.2-127.1,44.4-186.6
	c29.3-69.2,71.2-131.4,124.6-184.8c7.3-7.3,14.7-14.3,22.3-21.2c-162.7-343.7-512.9-582-917.8-582c-488.9,0-901.6,351.9-995,815.6
	c11.9-50.9,28.4-100.7,49.5-149c44.6-102.4,107.8-194.3,187.7-273.1c80-78.8,172.8-140.7,275.9-183.9
	C642.5,882.8,755.8,860.1,872.5,860.1z M2517.6,1242.5c-109.8,119.2-180.2,275.3-190.2,447.3c10.4-58.1,38.2-111.6,80.9-154.2
	c47.5-47.5,108.6-76.6,174.5-83.8C2566.8,1379.7,2545,1309.7,2517.6,1242.5z M2614.6,1450.2c78,0,151.2,30.4,206.4,85.5
	c41.1,41.1,68.5,92.4,79.7,148.1c-18-215.3-154.3-397.4-343.6-481c-12.8,11.9-25.1,24.2-37,37c28.1,68.9,50,139.6,65.8,211.8
	C2595.4,1450.7,2605,1450.2,2614.6,1450.2z M2181.6,1171.5c19.5,35.3,37.1,71.6,52.8,108.6c54.3,128.4,84.6,263.9,90.4,403.5
	c5.3-80.9,23.9-159.4,55.5-234.1c32.9-77.8,78.6-148.4,135.9-210.4c-8.5-20.7-17.5-41.1-27-61.3c-52.3-15.6-107.7-23.9-164.9-23.9
	C2275.5,1153.9,2227.7,1159.9,2181.6,1171.5z M1453.2,1440.8c78,0,151.2,30.4,206.4,85.5c42.8,42.8,70.6,96.5,81,154.8
	c-26.7-455.6-405.9-818-868-818c-419.9,0-774.7,303.5-853.3,702.5c9.8-41.8,23.4-82.7,40.6-122.4c37.1-85.5,89.8-162.3,156.4-228.1
	c66.7-65.8,144.1-117.5,230.1-153.6c89.1-37.3,183.6-56.3,281-56.3c98.2,0,193.4,19.2,283.1,57.2c86.6,36.6,164.4,89.1,231.2,155.9
	c66,66,118,142.7,154.5,228C1414.8,1442.7,1433.9,1440.8,1453.2,1440.8z M2749,1074.1c15.5,30.5,30,61.5,43.3,92.9
	c67.9,160.6,105.8,330.2,113,504.9c6.1-104.2,27.9-205.9,65.1-303.1c29.3-76.6,67.6-149,114.2-216.1c-19.2-49.1-40.9-97-64.7-143.6
	C2923.7,1013.1,2832.1,1036,2749,1074.1z M2559.6,1200.5c65.6,29.1,124.7,69.6,175.8,120.7c53.4,53.4,95.3,115.6,124.6,184.8
	c21.6,51.2,35.7,104.6,41.9,159.6c-9.7-211.5-64.9-411.4-156.1-590C2677.3,1107.5,2614.6,1149.8,2559.6,1200.5z M3086.6,1157.7
	c-100.7,145.7-164.2,318.2-177.5,502.2c5.6-33.4,15.1-65.9,28.3-97.4c22-52,53.5-98.8,93.7-138.9c33.7-33.7,72-61.3,114.1-82.3
	C3129.4,1278.6,3109.7,1217.3,3086.6,1157.7z M3432,1305.3c26.7,5.7,52.9,14,78.3,24.7c52,22,98.8,53.5,138.9,93.7
	c40.1,40.1,71.6,86.9,93.7,138.9c12.3,29,21.3,58.9,27,89.6c-17.9-163-90.1-314-207.7-431.6c-61-61-131-109.8-207-145.1
	C3386,1150,3411.7,1227,3432,1305.3z M1162.9,572.8c-557.5,0-1028.3,400.3-1136.5,928.5c13.8-59.2,32.9-117,57.3-173.3
	c51.9-119.7,125.5-227.1,218.8-319.3c93.3-92.2,201.6-164.5,322-215c124.6-52.3,257-78.8,393.3-78.8c137.4,0,270.7,26.9,396.1,80
	c121.2,51.3,230,124.6,323.5,218.1c83.4,83.4,150.7,178.9,200.7,284.6c47.5-42.3,101.2-76.3,159.9-101.1
	c25.7-10.9,52-19.8,78.8-26.8C1978.5,814,1598.3,572.8,1162.9,572.8z M1308.1,427.6c-626,0-1154.8,448.4-1278,1040.8
	c15.7-67.7,37.6-133.8,65.5-198.1c29.5-68.1,65.9-133.7,108-195c41.7-60.8,89.5-117.9,142-169.8c52.5-51.9,110.2-99,171.5-140
	c61.9-41.4,128-77,196.4-105.7c142.4-59.7,293.6-90,449.4-90c157,0,309.3,30.7,452.7,91.4c68.9,29.1,135.4,65.2,197.5,107.2
	c61.6,41.6,119.5,89.4,172.1,142c52.6,52.6,100.4,110.5,142,172.1c18.9,28,36.6,56.8,53,86.3c46.8-11.9,95-18,144.1-18
	c55.8,0,110.5,7.8,163.1,23.2C2277.8,733.1,1827.9,427.6,1308.1,427.6z M36.2,1424.7c-0.4,1.8-0.7,3.6-1.1,5.4
	c17.6-74.2,41.7-146.8,72.4-217.5c33.2-76.6,74.1-150.4,121.4-219.4c46.9-68.4,100.7-132.6,159.8-191
	c59.1-58.4,124-111.4,192.9-157.5c69.6-46.6,143.9-86.6,221-118.9c160.2-67.2,330.3-101.3,505.5-101.3
	c176.6,0,347.9,34.6,509.2,102.8c77.5,32.8,152.3,73.4,222.2,120.6c69.3,46.8,134.4,100.5,193.6,159.7
	c59.2,59.2,112.9,124.3,159.7,193.6c37.4,55.3,70.6,113.6,99,174c19.9,6,39.5,13.1,58.8,21.2c1.9,0.8,3.8,1.6,5.7,2.4
	c56-51.9,119.1-94.3,188.1-126.3C2503.8,604,2015.4,282.4,1453.2,282.4C762.8,282.4,178.6,773.6,36.2,1424.7z M3088.9,1154.4
	c23.5,60.5,43.3,122.6,59.3,185.6c7.2-3.5,14.5-6.8,21.8-10c53.9-22.8,111.1-34.3,170.1-34.3c0,0,0,0,0,0c30,0,59.5,3,88.3,8.9
	c-20.7-79.4-46.8-156.7-78-231.3c-48.9-22.3-100.2-39.1-153.2-49.9C3157.6,1063.9,3121.3,1107.8,3088.9,1154.4z M1600,138.8
	C884.1,138.8,272.3,619,73.8,1274.2c13.4-40.3,28.6-80.1,45.6-119.3c36.9-85.1,82.3-167,134.9-243.7
	c52.1-76,111.9-147.3,177.5-212.2c65.6-64.9,137.8-123.7,214.3-175c77.3-51.7,159.9-96.2,245.5-132.1
	c178-74.6,366.9-112.5,561.6-112.5c196.2,0,386.5,38.4,565.7,114.2c86.1,36.4,169.2,81.5,246.9,134c77,52,149.3,111.7,215.1,177.5
	c65.8,65.8,125.5,138.1,177.5,215.1c32.7,48.5,62.6,99,89.3,151.1c6.5-3,13-5.8,19.6-8.6c79.9-33.8,164.3-52.8,251.2-56.5
	C2753.8,491.6,2217.3,138.8,1600,138.8z M1745.1,3C964.8,3,297.8,526.1,80.5,1239.8c15.6-48,33.5-95.4,53.8-142.1
	c40.5-93.5,90.4-183.6,148.3-267.8c57.3-83.5,122.9-161.9,195-233.2c72.1-71.3,151.4-136,235.5-192.3
	c85-56.9,175.7-105.7,269.8-145.1c195.6-82,403.2-123.6,617.1-123.6c108.3,0,216.6,10.9,321.8,32.4c102.5,21,203.4,52.3,299.8,93.1
	c94.6,40,185.9,89.6,271.3,147.2c84.6,57.1,164.1,122.7,236.3,195c72.3,72.3,137.9,151.8,195,236.3c36,53.3,68.8,108.9,98.2,166.1
	c9.3-0.3,18.6-0.5,27.9-0.5c49,0,97.3,4.8,144.6,14.3c29-29.5,59.6-57.1,91.7-82.8C2995.5,382.3,2413.8,3,1745.1,3z M2493.6,1179.1
	c6.9,14.7,13.5,29.5,19.8,44.4c1.8,4.3,3.6,8.6,5.4,12.9c5.7-6.1,11.5-12.1,17.4-18c5.8-5.8,11.7-11.5,17.7-17.1
	C2534.2,1192.9,2514.1,1185.4,2493.6,1179.1z M3023.8,1009c17.1,33.5,33,67.6,47.6,102.2c5.4,12.7,10.6,25.5,15.6,38.3
	c20.9-29.8,43.5-58.6,67.6-86.3c12.2-14,24.8-27.6,37.7-40.8c-46.3-9.2-93.8-13.9-142.1-13.9
	C3041.3,1008.5,3032.5,1008.7,3023.8,1009z M3199.7,1020.9c45.6,9.5,90.2,23.5,133.4,41.8c5.3,2.2,10.5,4.5,15.7,6.9
	c-18.5-43.9-38.7-86.9-60.6-128.8C3257.2,965.7,3227.6,992.5,3199.7,1020.9z M0.1,1742.1c0-0.3,0-0.7,0-1c0-0.1,0-0.1,0-0.2
	c0-0.7,0-1.4,0-2.1v-0.6h3v0.1c0,0.3,0,0.6,0,0.8l0,0.1l0,0.1c0,0.1,0,0.1,0,0.2c0,0.1,0,0.2,0,0.3l0,0.1l0,0.1c0,0.2,0,0.5,0,0.7
	c0,0.4,0,0.7,0,1.1L0.1,1742.1z"/>
</svg>
